<svg xmlns="http://www.w3.org/2000/svg" viewBox="0 0 211 72.72"><defs><style>.cls-1{fill:#ff6060;}</style></defs><path class="cls-1" d="M20.07,39.37l-11.23,11.49v16.12H0V4.72H8.84V39.55L42.36,4.72h10.13l-26.34,27.98,28.18,34.28h-10.31l-23.94-27.61Z"/><path class="cls-1" d="M118.79,61.97l3.5-6.67c4.05,2.78,10.31,4.82,16.39,4.82,7.92,0,11.05-2.41,11.05-6.49,0-10.56-29.65-1.48-29.65-20.2,0-8.52,7.55-14.08,19.52-14.08,6.08,0,13.08,1.67,17.13,4.26l-3.68,6.67c-4.24-2.78-8.84-3.71-13.44-3.71-7.37,0-11.05,2.78-11.05,6.49,0,11.12,29.65,2.04,29.65,20.38,0,8.52-7.74,13.9-20.26,13.9-7.55,.19-15.29-2.22-19.15-5.37Z"/><path class="cls-1" d="M210.32,38.44v28.53h-8.1v-6.3c-2.76,4.26-8.1,6.67-15.47,6.67-10.68,0-17.31-5.74-17.31-13.9,0-7.6,4.79-13.71,18.78-13.71h13.45v-1.67c0-7.23-4.24-11.3-12.52-11.3-5.52,0-11.23,2.04-14.92,5l-3.5-6.49c4.79-3.89,11.79-6.11,19.34-6.11,13.08,.19,20.26,6.48,20.26,19.27Zm-8.47,14.08v-6.67h-13.08c-8.47,0-10.87,3.34-10.87,7.23,0,4.63,3.87,7.6,10.31,7.6,6.45,.19,11.6-2.59,13.63-8.15Z"/><path class="cls-1" d="M91.53,54.56v12.6l5.34-3.15v-12.6l-5.34,3.15Z"/><path class="cls-1" d="M106.27,39.18l-21.92-12.78-12.16-7.04-11.97,20.94,.18,19.64,21.73,12.78,2.21-1.3v-18.53l9.76-17.23,9.95,5.74v18.53l2.21-1.3v-19.46Z"/></svg>